<svg width="300" height="300" viewBox="0 0 300 300" fill="none" xmlns="http://www.w3.org/2000/svg">
<g clip-path="url(#clip0_81_18)">
<rect width="300" height="300" fill="white"/>
<rect width="300" height="300" rx="50" fill="url(#paint0_linear_81_18)" fill-opacity="0.91"/>
<rect x="285" y="285" width="270" height="270" rx="50" transform="rotate(-180 285 285)" fill="url(#paint1_linear_81_18)" fill-opacity="0.5"/>
<rect x="270" y="270" width="240" height="240" rx="50" transform="rotate(-180 270 270)" fill="url(#paint2_linear_81_18)" fill-opacity="0.5"/>
<g filter="url(#filter0_d_81_18)">
<path d="M194.032 179.672V203.864C188.656 203.224 183.536 202.968 174.192 202.968H124.656C116.208 202.968 111.472 203.096 105.584 203.352V181.208C108.656 178.136 111.856 174.808 117.232 168.152L154.608 123.352C155.504 122.328 155.888 121.816 158.576 118.744C156.272 118.872 153.584 118.872 152.176 118.872H129.136C120.688 118.872 114.416 119.128 109.552 119.768V95.576C116.464 96.216 121.584 96.472 129.136 96.472H172.528C179.696 96.472 183.28 96.344 191.728 96.088V117.464C188.656 120.536 184.56 125.144 179.184 131.8L142.832 175.704C141.808 176.984 140.784 178.136 138.48 180.696C139.632 180.568 141.808 180.568 145.008 180.568H174.192C182 180.568 187.376 180.312 194.032 179.672Z" fill="white"/>
</g>
</g>
<defs>
<filter id="filter0_d_81_18" x="101.584" y="95.5759" width="96.448" height="116.288" filterUnits="userSpaceOnUse" color-interpolation-filters="sRGB">
<feFlood flood-opacity="0" result="BackgroundImageFix"/>
<feColorMatrix in="SourceAlpha" type="matrix" values="0 0 0 0 0 0 0 0 0 0 0 0 0 0 0 0 0 0 127 0" result="hardAlpha"/>
<feOffset dy="4"/>
<feGaussianBlur stdDeviation="2"/>
<feComposite in2="hardAlpha" operator="out"/>
<feColorMatrix type="matrix" values="0 0 0 0 0 0 0 0 0 0 0 0 0 0 0 0 0 0 0.25 0"/>
<feBlend mode="normal" in2="BackgroundImageFix" result="effect1_dropShadow_81_18"/>
<feBlend mode="normal" in="SourceGraphic" in2="effect1_dropShadow_81_18" result="shape"/>
</filter>
<linearGradient id="paint0_linear_81_18" x1="150" y1="0" x2="150" y2="300" gradientUnits="userSpaceOnUse">
<stop stop-color="#63857F"/>
<stop offset="1" stop-color="#174D46"/>
</linearGradient>
<linearGradient id="paint1_linear_81_18" x1="420" y1="285" x2="420" y2="555" gradientUnits="userSpaceOnUse">
<stop stop-color="#63857F"/>
<stop offset="1" stop-color="#174D46"/>
</linearGradient>
<linearGradient id="paint2_linear_81_18" x1="390" y1="270" x2="390" y2="510" gradientUnits="userSpaceOnUse">
<stop stop-color="#63857F"/>
<stop offset="1" stop-color="#174D46"/>
</linearGradient>
<clipPath id="clip0_81_18">
<rect width="300" height="300" fill="white"/>
</clipPath>
</defs>
</svg>
